<?xml version="1.0" encoding="iso-8859-1"?>
<!-- Generator: Adobe Illustrator 16.0.0, SVG Export Plug-In . SVG Version: 6.00 Build 0)  -->
<!DOCTYPE svg PUBLIC "-//W3C//DTD SVG 1.1//EN" "http://www.w3.org/Graphics/SVG/1.1/DTD/svg11.dtd">
<svg version="1.1" id="Capa_1" xmlns="http://www.w3.org/2000/svg" xmlns:xlink="http://www.w3.org/1999/xlink" x="0px" y="0px"
	 width="388.384px" height="388.384px" viewBox="0 0 388.384 388.384" style="enable-background:new 0 0 388.384 388.384;"
	 xml:space="preserve">
<g>
	<g>
		<g>
			<path d="M194.188,68.884c6.7,0,12.129-5.43,12.129-12.126v-44.63c0-6.7-5.429-12.128-12.129-12.128S182.06,5.428,182.06,12.128
				v44.63C182.06,63.454,187.488,68.884,194.188,68.884z"/>
			<path d="M323.444,267.919h-34.652l-53.237-153.728c7.062-8.963,11.297-20.26,11.297-32.534c0-20.296-11.544-37.946-28.404-46.733
				v25.118c0,1.983-0.245,3.911-0.698,5.76c3.06,4.531,4.849,9.989,4.849,15.855c0,15.663-12.744,28.407-28.407,28.407
				c-15.661,0-28.405-12.744-28.405-28.407c0-5.867,1.789-11.324,4.848-15.856c-0.453-1.848-0.699-3.776-0.699-5.759v-25.12
				c-16.86,8.789-28.406,26.438-28.406,46.734c0,12.274,4.234,23.571,11.299,32.535L99.589,267.919H64.937
				c-3.167,0-5.743,2.577-5.743,5.745v9.574c0,3.168,2.576,5.746,5.743,5.746h27.355l-13.239,38.224
				c-0.605,1.75,0.322,3.659,2.07,4.265l1.359,0.472l-16.924,48.854c-0.604,1.75,0.322,3.658,2.071,4.267l9.05,3.133
				c1.609,0.559,3.383-0.183,4.118-1.724l22.578-47.295l4.891,1.693c1.747,0.605,3.658-0.32,4.264-2.068l17.256-49.819h53.014v2.97
				c0,6.28,5.109,11.392,11.392,11.392s11.393-5.11,11.393-11.392v-2.97h53.015l17.256,49.819c0.604,1.748,2.516,2.675,4.264,2.068
				l4.893-1.693l22.578,47.295c0.733,1.541,2.509,2.281,4.116,1.724l9.052-3.133c1.749-0.605,2.675-2.515,2.069-4.267
				l-16.924-48.854l1.359-0.472c1.748-0.604,2.676-2.514,2.068-4.265l-13.238-38.224h27.354c3.167,0,5.744-2.578,5.744-5.746v-9.574
				C329.188,270.496,326.611,267.919,323.444,267.919z M205.58,267.919v-2.972c0-6.281-5.107-11.394-11.392-11.394
				s-11.392,5.111-11.392,11.394v2.972h-45.72l46.633-134.651c3.387,0.688,6.891,1.05,10.478,1.05c3.589,0,7.092-0.362,10.479-1.05
				l46.635,134.651H205.58z"/>
		</g>
	</g>
</g>
<g>
</g>
<g>
</g>
<g>
</g>
<g>
</g>
<g>
</g>
<g>
</g>
<g>
</g>
<g>
</g>
<g>
</g>
<g>
</g>
<g>
</g>
<g>
</g>
<g>
</g>
<g>
</g>
<g>
</g>
</svg>
